<svg xmlns="http://www.w3.org/2000/svg" viewBox="0 0 67.93 58.23"><defs><style>.cls-1{fill:#231815;}.cls-2{fill:#fff;}</style></defs><g id="レイヤー_2" data-name="レイヤー 2"><g id="レイヤー_1-2" data-name="レイヤー 1"><path class="cls-1" d="M29.45,17s.14-5.58.14-7.22-.69-2.59-.69-3.4-.27-2.86,1-3A1.85,1.85,0,0,1,32,5.51a52.18,52.18,0,0,0-.82,6.54c0,1.5.27,4.36.54,4.63a1,1,0,0,0,1.5-.41c.41-.82.55-3.4,1.64-5.31s2.18-6,3-7.49S39-.76,40.89.2s1.64,1.36.55,2.86S39,7.28,37.89,8.64s-1.36,3.41-1.9,4.91.27,1.9,1.77,1.9A6.14,6.14,0,0,0,42,14a75.68,75.68,0,0,1,6.68-6.41c1.49-1.09,2.72-2.58,3.27-3s2,.41,1.63,1.5-.27,1.22-1.5,2-3.54,2.18-4.36,2.72a35.45,35.45,0,0,0-4.22,3.68c-.82.95-.68.55-.55,2.32a1.91,1.91,0,0,0,2.59,1.63c.68-.27,6.54-3.68,8.45-4.9a56.37,56.37,0,0,1,6.54-3.82c1.63-.68,2.59-1,3.27.14s1,2.59-.41,2.72-3.68,0-5.31.68-5.73,3.27-6.82,3.82-2.72,1.36-3.13,2,.68.41,1.64,1.23,3,2.31,4.22,3.54.82,2.45,3.54,2.59,4,.54,6.27-.55,3.81-1.5,4.08-.54a2.86,2.86,0,0,1-1.77,3.27c-1.5.41-3.81.81-4.9,1.22A19.18,19.18,0,0,0,57.1,33c-.68.68-.82,3.27-1.36,3.81s-.27,1.36,1.36,1.77S59.55,39,60.51,40a3.25,3.25,0,0,1,1,2.73,2.8,2.8,0,0,1-1,1.77A3.4,3.4,0,0,0,59,41.88c-1.36-.68-2.18-1.5-3.41-1.5a3.91,3.91,0,0,0-3.13,1c-1.09.95-1.5,1.09-1.23,2.58s2.18,3.14,2.73,4.5.68,1.91.13,2.59-2,0-2.58-1.36-2.73-5.59-3.68-6.13-1.09-1.09-1.77-.55-1.09-.14-.82,1.64,1,3.13.68,5.17.14,5.59-.41,6.54S45,57,44,56.59s-.81-.81-.4-2.59a11.78,11.78,0,0,0,0-5.72c-.55-1.77-1.09-4.76-1.77-4.76s-.41.27-2.18.4a15.14,15.14,0,0,0-2.73.41c-.68.14-.82,1.36-1.22,2.86s.4,4.36-.41,6.27a30.8,30.8,0,0,1-1.77,4.22c-.55.68-1.91.82-1.91-.13s.95-2.86,1.22-4.77,1-4.22.82-5.86.27-2.31-.27-2.18-1.09-.41-1.91.82-1.22,4.09-2.18,5.86a20.82,20.82,0,0,1-2.86,3.67c-.95,1.23-1.77,2-2.45,1.23s-1.23-1.23.41-3.81,3.81-5.18,4.09-6a8,8,0,0,0,.27-2s-2.45-.14-2.86-.14-1.09,0-1.36.41-3.27,4.5-4.36,5.59-2.18,2-3.14,2.86-1.22,1.63-1.9.41a3.31,3.31,0,0,1,1-4.09c1.36-1.23,3.13-1.91,4.22-3.27s1.64-1.91,1.77-2.45.28-.55-1.63-.55a10.37,10.37,0,0,0-5.18,1.23c-1.36.82-4.36,2-5.17,2.59s-2,1.5-2.32.54-1.36-1.36-.54-2.31,3.26-1,4.9-1.91,5.86-2,6.27-2.59-1.09-.54-2.05-1.63-1.9-1.64-2.72-1.5-5.72-.41-6.95-.14-2.45.27-3.68.55a5.72,5.72,0,0,1-1.9.27c-.82,0-1.23.14-1.09-1.23s.54-1.9,2.18-1.77,6.53.27,7.76.27a28.63,28.63,0,0,0,3.54-.4s-.68-1.5-1.09-2.59,1.09.41-.41-1.09-5.17-2.45-6.4-3.41-3.95-1.77-2-3a3.11,3.11,0,0,1,4,.13,26,26,0,0,1,2,1.64c.55.54.82.81,1.91.41s.27-1.37,1.09-2.73,1.77-3.27,2.59-3.81,1.09-.28.27-1.77-1.23-2.86-2-4.5-1.5-3.4.13-3.81,3.13.41,2.59,1.77A6.58,6.58,0,0,0,16,16.41c.28.82,1.5,2,1.91,2.86s3.13,1.63,3.54.54.14-1.9.14-4.49-1.64-7-1.36-7.77.4-1.09,1.63-1,1.77.68,1.36,3.13,1.09,7.22,1.37,7.9,1.9.28,3,.14A4.16,4.16,0,0,0,29.45,17Z"/><path class="cls-2" d="M21.78,22.58c-1.44.36-4,.64-5.09,1.55a7,7,0,0,0-2,3.18,8,8,0,0,0,.91,6.81c1.73,2.27,6.36,3.63,8,4.08s6.18-.54,8.17-1.9,2.73-2.09,2.64-3.64A11.13,11.13,0,0,0,31.67,26C29.68,24,27.59,21.13,21.78,22.58Z"/><path class="cls-2" d="M37.85,26.76a13,13,0,0,0-.64,5.36c.09,2.72,1.09,4.45,4.64,6.54s6,1.63,7.62,1.18,4.63-3.09,4.91-5.09a12,12,0,0,0-.82-5.63c-.64-1.91-3.54-5.54-5.36-6.45s-3.45-.36-5,.19S38.21,25.85,37.85,26.76Z"/><path class="cls-1" d="M44.91,27.24c-.95.07-1.79.52-2.52,2.06s.45,4.09,1.18,4.82,5.36,0,4.72-3.64S45.75,27.17,44.91,27.24Z"/><path class="cls-1" d="M22.71,26.15c-.74.21-.62.34-1.37.88a4.18,4.18,0,0,0-1.56,1.5,3,3,0,0,0,.34,2.73,3.6,3.6,0,0,0,2,1.49,3.2,3.2,0,0,0,2.52-.4c1.09-.62,1.16-1.37,1.09-2.87a3.2,3.2,0,0,0-1.16-2.72C24,26.35,23.66,25.88,22.71,26.15Z"/><path class="cls-1" d="M56.35,18.93c-1.34,0-1.5-.68-2.18-.89s-.61-.27-1.63.21-1.7,1.36-1.23,2.24,2.32,1,3.34.89a33.29,33.29,0,0,0,5.79-.89c1.91-.54,2.38-.95,4-.95s2.79.14,2.72-1.16-1.43-.95-2.59-.88-1.77.54-3.88,1.09A12,12,0,0,1,56.35,18.93Z"/></g></g></svg>