<?xml version="1.0" encoding="UTF-8" standalone="no"?>
<!-- Created with Inkscape (http://www.inkscape.org/) -->

<svg
   xmlns:dc="http://purl.org/dc/elements/1.1/"
   xmlns:cc="http://creativecommons.org/ns#"
   xmlns:rdf="http://www.w3.org/1999/02/22-rdf-syntax-ns#"
   xmlns:svg="http://www.w3.org/2000/svg"
   xmlns="http://www.w3.org/2000/svg"
   xmlns:sodipodi="http://sodipodi.sourceforge.net/DTD/sodipodi-0.dtd"
   xmlns:inkscape="http://www.inkscape.org/namespaces/inkscape"
   width="1600"
   height="1800"
   id="svg2"
   version="1.1"
   inkscape:version="0.48.5 r10040"
   sodipodi:docname="tOTORO.svg">
  <defs
     id="defs4">
    <clipPath
       clipPathUnits="userSpaceOnUse"
       id="clipPath4026">
      <g
         id="g4028"
         transform="translate(-90.408653,56.063466)">
        <g
           style="fill:#e6e63c;fill-opacity:1"
           transform="translate(45.456867,-10.101525)"
           id="g4030">
          <g
             transform="translate(-8.0812246,1.0101528)"
             id="g4032"
             style="fill:#e6e63c;fill-opacity:1;stroke:#000000;stroke-opacity:0.99581586">
            <g
               style="fill:#e6e63c;fill-opacity:1;stroke:#000000;stroke-opacity:0.99581586"
               transform="translate(76.771588,125.76399)"
               id="g4034">
              <g
                 id="g4036"
                 transform="translate(-490.85601,-231.88693)"
                 style="fill:#e6e63c;fill-opacity:1;stroke:#000000;stroke-opacity:0.99581586">
                <path
                   sodipodi:nodetypes="cccc"
                   transform="translate(0,-747.63782)"
                   inkscape:connector-curvature="0"
                   id="path4038"
                   d="m 1127.1645,1191.7876 c 0.67,-8.1164 0.8527,-16.2328 2.7739,-24.3492 l 1.4902,-6.367 -0.3572,-0.3571"
                   style="fill:#e6e63c;fill-opacity:1;stroke:#000000;stroke-width:1px;stroke-linecap:butt;stroke-linejoin:miter;stroke-opacity:0.99581586" />
                <path
                   sodipodi:nodetypes="cccc"
                   transform="translate(0,-747.63782)"
                   inkscape:connector-curvature="0"
                   id="path4040"
                   d="m 1174.2443,1157.6244 -5.2457,4.2099 -2.5081,7.462 -0.4191,35.3466"
                   style="fill:#e6e63c;fill-opacity:1;stroke:#000000;stroke-width:1px;stroke-linecap:butt;stroke-linejoin:miter;stroke-opacity:0.99581586" />
                <path
                   sodipodi:nodetypes="ccc"
                   transform="translate(0,-747.63782)"
                   inkscape:connector-curvature="0"
                   id="path4042"
                   d="m 1221.7857,1151.7857 0.6387,36.4104 -1.4161,23.6546"
                   style="fill:#e6e63c;fill-opacity:1;stroke:#000000;stroke-width:1px;stroke-linecap:butt;stroke-linejoin:miter;stroke-opacity:0.99581586" />
                <path
                   sodipodi:nodetypes="ccc"
                   transform="translate(0,-747.63782)"
                   inkscape:connector-curvature="0"
                   id="path4044"
                   d="m 1268.5715,1153.9286 3.3941,27.8721 -0.1799,27.485"
                   style="fill:#e6e63c;fill-opacity:1;stroke:#000000;stroke-width:1px;stroke-linecap:butt;stroke-linejoin:miter;stroke-opacity:0.99581586" />
                <path
                   sodipodi:nodetypes="csc"
                   transform="translate(0,-747.63782)"
                   inkscape:connector-curvature="0"
                   id="path4046"
                   d="m 1307.1429,1159.6429 c 0.6667,2.5032 0.1336,6.8539 1.0372,9.2954 2.7533,7.4395 6.4012,17.0973 4.677,27.1331"
                   style="fill:#e6e63c;fill-opacity:1;stroke:#000000;stroke-width:1px;stroke-linecap:butt;stroke-linejoin:miter;stroke-opacity:0.99581586" />
                <path
                   sodipodi:nodetypes="cc"
                   transform="translate(0,-747.63782)"
                   inkscape:connector-curvature="0"
                   id="path4048"
                   d="m 1335.3571,1162.8571 c 3.6436,4.7138 3.2291,12.1331 4.2858,18.5715"
                   style="fill:#e6e63c;fill-opacity:1;stroke:#000000;stroke-width:1px;stroke-linecap:butt;stroke-linejoin:miter;stroke-opacity:0.99581586" />
                <g
                   id="g4050"
                   style="fill:#e6e63c;fill-opacity:1;stroke:#000000;stroke-opacity:0.99581586">
                  <path
                     style="font-size:medium;font-style:normal;font-variant:normal;font-weight:normal;font-stretch:normal;text-indent:0;text-align:start;text-decoration:none;line-height:normal;letter-spacing:normal;word-spacing:normal;text-transform:none;direction:ltr;block-progression:tb;writing-mode:lr-tb;text-anchor:start;baseline-shift:baseline;color:#000000;fill:#e6e63c;fill-opacity:1;fill-rule:nonzero;stroke:#000000;stroke-width:2.20000005;stroke-opacity:0.99581586;marker:none;visibility:visible;display:inline;overflow:visible;enable-background:accumulate;font-family:Sans;-inkscape-font-specification:Sans"
                     d="m 1232.1562,404.48718 c -32.8173,0 -62.7153,5.3043 -86.1874,6.4375 -15.066,0.7273 -27.5389,0.6128 -36.3438,1.3125 -4.4025,0.3499 -7.8683,0.887 -10.4062,1.9375 -1.269,0.5252 -2.3401,1.1657 -3.0938,2.0625 -0.7537,0.8968 -1.1563,2.0576 -1.1562,3.2812 -1e-4,4.2754 3.8348,8.9237 10.375,13.9063 6.5401,4.9826 15.9696,10.2231 27.7187,15 23.4982,9.5539 56.2866,17.2773 93.7187,17.1875 68.8706,-0.1652 82.7788,-14.8767 106.75,-28.25 0.7763,0.0601 1.496,-0.1056 2.4063,-0.4375 1.1649,-0.4247 2.5554,-1.0953 4.0937,-1.9063 3.0768,-1.6219 6.7564,-3.8746 10.2188,-6.2187 3.4624,-2.3441 6.7085,-4.763 8.9062,-6.7187 1.0989,-0.9779 1.9398,-1.8055 2.4688,-2.5938 0.2645,-0.3942 0.4787,-0.7609 0.5,-1.3438 0.011,-0.2914 -0.071,-0.6791 -0.2812,-0.9687 -0.044,-0.0601 -0.1063,-0.0744 -0.1563,-0.125 -0.1273,-0.7126 -0.4051,-1.3698 -0.9063,-1.8437 -0.6432,-0.6085 -1.4524,-0.9574 -2.375,-1.1563 -1.8451,-0.3979 -4.1954,-0.3103 -7,-0.125 -5.6091,0.3705 -13.0049,1.2364 -20.5312,0.4375 -22.6243,-2.4013 -54.1565,-9.875 -98.7188,-9.875 z m 0,2.1875 c 44.3158,0 75.6138,7.4459 98.5,9.875 7.84,0.8321 15.3979,-0.0424 20.9063,-0.4063 2.7542,-0.1819 4.9997,-0.234 6.375,0.0626 0.6877,0.1482 1.1209,0.3829 1.3437,0.5937 0.2229,0.2108 0.3385,0.3942 0.3438,0.875 l 0,0.75 0,0.0313 c -0.3492,0.473 -0.9873,1.1543 -1.9375,2 -2.0666,1.8391 -5.2489,4.2244 -8.6563,6.5312 -3.4073,2.3068 -7.0624,4.5288 -10.0312,6.0938 -1.4844,0.7824 -2.8038,1.4135 -3.8125,1.7812 -1.0087,0.3677 -1.783,0.3223 -1.625,0.375 l -0.4687,-0.1562 -0.4063,0.25 c -24.4029,13.5689 -37.126,27.8974 -105.9063,28.0624 -37.126,0.0891 -69.6868,-7.5595 -92.9062,-17 -11.6097,-4.7202 -20.8684,-9.9045 -27.1875,-14.7187 -6.3191,-4.8142 -9.5313,-9.3308 -9.5313,-12.1563 0,-0.7696 0.2121,-1.3151 0.6563,-1.8437 0.4442,-0.5286 1.1958,-1.0324 2.25,-1.4687 2.1084,-0.8727 5.4405,-1.4388 9.75,-1.7813 8.6191,-0.6849 21.1139,-0.5818 36.25,-1.3125 23.7116,-1.1448 53.5143,-6.4375 86.0937,-6.4375 z"
                     id="path4052"
                     inkscape:connector-curvature="0" />
                </g>
              </g>
            </g>
          </g>
        </g>
      </g>
    </clipPath>
    <clipPath
       clipPathUnits="userSpaceOnUse"
       id="clipPath4208">
      <path
         sodipodi:nodetypes="ccssccccccssscccccccccscssccsccccscsssssscsssssssssssssssssssssssssscsssssscccccccsc"
         inkscape:connector-curvature="0"
         id="path4210"
         d="m 775.10269,84.244973 c -1.9568,0.0504 -4.4916,1.51183 -8.3437,5.59375 -4.4312,4.69543 -11.279,13.032807 -16.1563,23.750007 -5.7423,12.61789 -10,15.87441 -10,22.8125 0,3.28616 -8.1041,18.89466 -8.9063,21.81249 -3.1934,11.61647 -3.4337,22.31816 -7.9374,31.46875 -1.7834,3.6233 6.0867,10.9721 8.8124,11.5 -3.8982,0.2125 -6.9285,1.8887 -9.0312,5.0938 -0.1324,0 7.6965,7.416 8.2054,8.8124 0.6902,1.894 -5.4199,-0.76056 -3.8437,0.95094 -10.4341,-4.56388 -23.1032,-4.80493 -35.5787,-6.45907 -15.0092,-1.99009 -30.2175,-4.74713 -47.2697,-2.5945 -15.6492,1.97554 -23.2646,3.16607 -38.2642,7.74131 -11.1466,3.39996 5.1109,-0.72858 -5.392,3.99535 10.0433,-5.879 -11.4509,2.55357 -11.4509,2.55357 l 4.9063,-12.9688 c -3.6274,-0.3321 -8.7362,0.144 -7.4375,-2.875 0.4591,0 7.2055,-5.4742 6.375,-9 -0.717,-3.0442 -5.0574,1.7079 -6.0625,-1.75 1.1107,-1.635 5.0693,-8.06148 4.9375,-15.09375 l 0.7812,-8.21875 -1.125,-10.15625 c -1.1509,-5.28683 -1.9523,-10.12018 -2.8437,-14.74999 -4.2643,-22.14876 -10.3902,-31.36212 -12.5937,-43.93751 -1.112,-6.345787 -9.4429,-9.669567 -13.1876,-13.781247 -3.3998,-3.733 -15.4815,-4.0488 -22.75,4.3125 -3.7681,4.33459 -4.5271,13.121637 -9.1874,18.406257 -10.2848,11.66224 -10.0735,39.66351 -11.6876,56.34374 -2.6315,27.1978 3.6983,33.4841 8.2188,43.0312 1.7123,3.6164 -2.7091,10.697 -2.9062,10.5 l 13.0624,3.75 c 0.4909,5.9862 -5.7193,8.2517 -9.0312,12.125 0.6033,-0.5027 11.6598,0.9993 11.9062,4.3438 0.2832,3.8417 -0.5092,5.2812 1.5,5.2812 0.3702,0 0.8517,-0.1001 1.4688,-0.2812 -15.8326,3.08972 -24.157,5.17065 -36.2683,16.05656 -4.1913,3.76726 9.3733,2.27293 4.2352,5.51977 -8.822,5.57483 -16.8302,13.06672 -23.9492,21.70144 -3.1897,3.86896 10.9419,-5.60406 8.116,-1.34586 -8.4978,12.8048 -24.9201,32.83949 -34.3158,50.15107 -4.5162,8.32115 0.6276,13.79339 -1.112,20.66408 -1.6275,6.42788 -10.26,14.34706 -10.8621,19.44044 -9.3811,7.32455 -18.3141,15.3387 -26.0207,24.69396 -2.7734,3.36677 -1.9683,8.77255 -5.7717,11.76225 -13.6654,10.74179 -34.243,24.47576 -31.4992,42.20388 0.5505,3.55726 -5.4724,7.91041 -7.7544,11.55732 -5.1285,8.19603 -10.1697,15.71837 -12.7336,23.16047 -3.7204,10.79879 -5.0618,12.28231 -8.5425,22.75107 -0.8961,2.69507 3.9063,1.25016 2.9968,4.20845 -2.3572,7.66661 -9.0687,16.36449 -12.0766,25.86813 -3.5734,11.29043 -3.3761,28.03674 -3.9973,39.1222 -0.2542,4.53607 -4.275,25.33027 -4.2751,29.4 -2e-4,10.10133 -1.2624,19.93097 0.5419,29.1837 1.6015,8.21246 6.1494,15.89463 8.1743,24.04684 4.2521,17.11944 10.4469,33.37401 18.3769,48.65272 4.0531,7.80896 18.2023,7.50585 23.1344,14.79015 51.7054,76.36544 140.5497,130.94256 253.9468,130.94256 107.2341,0 184.5868,-46.53952 238.0748,-121.12923 2.9056,-4.05187 10.5721,-6.03689 17.4147,-10.59832 6.8917,-4.59408 12.958,-11.76566 15.3814,-16.15026 4.1025,-7.42222 5.0577,-16.88013 7.9021,-25.28679 1.8982,-5.60992 5.8263,-10.15741 7.7216,-15.50476 6.8893,-19.4366 15.2589,-39.82044 16.9247,-60.87391 0.5004,-6.32347 -1.3881,-12.70736 -1.3881,-19.14413 0,-17.80167 -3.9144,-33.72331 -6.7521,-49.61965 -4.3923,-24.60581 -9.6947,-48.15389 -20.9398,-70.79617 -6.5944,-13.278 -16.2436,-24.93107 -24.4746,-39.01088 -5.99,-10.24631 -12.403,-20.91042 -19.1817,-32.20733 -7.3015,-12.16802 -14.4692,-12.74061 -24.0044,-25.12941 -6.1055,-11.6376 -11.8526,-8.80152 -13.7367,-15.63845 -1.7153,-6.22454 -4.8135,-14.12786 -5.6399,-19.42128 -1.0676,-6.83873 -4.063,-10.04078 -6.0611,-15.31402 -2.4339,-6.42312 -8.4554,-10.92506 -11.0689,-17.27619 -2.674,-6.49821 -3.4823,-13.98137 -7.2642,-21.36589 -7.414,-14.47648 -20.1632,-30.60468 -38.1322,-52.41229 -2.7281,-3.31091 -0.3718,2.05358 -4.1194,-0.0584 5.99,1.6726 -7.4189,-3.1554 -6.2812,-3.5313 1.8291,-0.6044 21.6098,-1.9754 21.9687,-2 -2.6266,-0.4511 -22.8482,-17.3203 -13.9375,-19.0313 3.9502,-0.7584 20.3438,-0.8947 20.3438,-15.0937 6.0572,-13.54658 8.308,-27.56401 9,-41.78125 l -0.7813,-15.87499 c -1.0759,-35.39219 -8.9985,-43.325837 -15.5937,-49.781257 -1.5635,-1.53034 -2.9495,-2.86294 -4.9063,-2.8125 z"
         style="opacity:0.26870734;fill:#ececec;fill-opacity:1;stroke:#000000;stroke-width:2.20000005;stroke-miterlimit:4;stroke-opacity:1;stroke-dasharray:none" />
    </clipPath>
  </defs>
  <sodipodi:namedview
     id="base"
     pagecolor="#ffffff"
     bordercolor="#666666"
     borderopacity="1.0"
     inkscape:pageopacity="0.0"
     inkscape:pageshadow="2"
     inkscape:zoom="0.24748737"
     inkscape:cx="1589.2587"
     inkscape:cy="928.57245"
     inkscape:document-units="px"
     inkscape:current-layer="layer1"
     showgrid="false"
     inkscape:window-width="1366"
     inkscape:window-height="716"
     inkscape:window-x="0"
     inkscape:window-y="24"
     inkscape:window-maximized="1" />
  <metadata
     id="metadata7">
    <rdf:RDF>
      <cc:Work
         rdf:about="">
        <dc:format>image/svg+xml</dc:format>
        <dc:type
           rdf:resource="http://purl.org/dc/dcmitype/StillImage" />
        <dc:title></dc:title>
      </cc:Work>
    </rdf:RDF>
  </metadata>
  <g
     inkscape:label="Capa 1"
     inkscape:groupmode="layer"
     id="layer1"
     transform="translate(0,747.63782)">
    <g
       id="g4253"
       transform="translate(125.25892,-444.46712)">
      <path
         style="fill:#72715f;fill-opacity:1;stroke:#000000;stroke-width:1.90749872;stroke-miterlimit:4;stroke-opacity:1;stroke-dasharray:none"
         d="m 696.50935,982.64361 c -5.043,4.3759 -12.11733,39.27999 -17.30971,41.63879 -5.87739,2.67 -12.73711,3.3489 -18.53932,5.8389 -15.90566,6.826 -32.73914,3.9576 -47.51264,-17.8537 -10.86649,-16.04303 -18.98482,-35.50998 -23.52278,-55.25865 -2.64818,-11.52446 -4.96249,-23.14487 -3.55872,-34.23686 0.58232,-4.60233 2.07608,-9.66199 3.44671,-14.0666 1.73597,-5.57884 2.57036,-12.18115 5.8201,-17.21226 24.8292,-43.50413 70.56442,-29.99851 85.14727,-17.49369 4.32176,3.70587 -7.86234,24.7358 -8.72574,25.13772 6.45182,29.60286 11.68099,23.44289 21.74269,65.3865 1.72796,7.20324 6.57822,10.58145 3.01214,18.11985 z"
         id="path4243"
         inkscape:connector-curvature="0"
         sodipodi:nodetypes="csssssscscsc" />
      <path
         sodipodi:nodetypes="cssssssccscsscc"
         inkscape:connector-curvature="0"
         id="path4245"
         d="m 683.09786,1011.4578 c -4.71276,4.3496 -1.51092,8.5144 -6.36327,10.859 -5.49249,2.654 -8.33157,4.7574 -13.75382,7.2325 -14.86405,6.785 -36.30947,2.5052 -50.1155,-19.1752 -10.15489,-15.94682 -17.74158,-35.29698 -21.98237,-54.92718 -2.47476,-11.45533 -4.63751,-23.00603 -3.32567,-34.03147 0.54419,-4.57473 1.94012,-9.60403 3.22099,-13.98222 1.62229,-5.54538 2.40204,-12.10807 5.43897,-17.10901 10.26489,-19.13036 33.63209,-22.64606 33.63209,-22.64606 0,0 -23.619,49.32786 -16.01997,56.25883 4.03874,3.68367 -6.47065,27.76381 -7.27751,28.16331 5.72446,5.93983 14.32882,26.68025 23.00946,28.38259 4.73077,0.92773 7.50438,17.59787 10.14471,23.80381 17.17802,40.3761 49.87537,-18.69288 49.87537,-18.69288 0,0 -3.15093,18.37088 -6.48348,25.86398 z"
         style="fill:#48463b;fill-opacity:1;stroke:none" />
      <path
         sodipodi:nodetypes="ccssccccccssscccccccccscssccsccccscsssssscsssssssssssssssssssssssssscsssssscccccccsc"
         inkscape:connector-curvature="0"
         id="path3818"
         d="m 775.10269,84.244973 c -1.9568,0.0504 -4.4916,1.51183 -8.3437,5.59375 -4.4312,4.69543 -11.279,13.032807 -16.1563,23.750007 -5.7423,12.61789 -10,15.87441 -10,22.8125 0,3.28616 -8.1041,18.89466 -8.9063,21.81249 -3.1934,11.61647 -3.4337,22.31816 -7.9374,31.46875 -1.7834,3.6233 6.0867,10.9721 8.8124,11.5 -3.8982,0.2125 -6.9285,1.8887 -9.0312,5.0938 -0.1324,0 7.6965,7.416 8.2054,8.8124 0.6902,1.894 -5.4199,-0.76056 -3.8437,0.95094 -10.4341,-4.56388 -23.1032,-4.80493 -35.5787,-6.45907 -15.0092,-1.99009 -30.2175,-4.74713 -47.2697,-2.5945 -15.6492,1.97554 -23.2646,3.16607 -38.2642,7.74131 -11.1466,3.39996 5.1109,-0.72858 -5.392,3.99535 10.0433,-5.879 -11.4509,2.55357 -11.4509,2.55357 l 4.9063,-12.9688 c -3.6274,-0.3321 -8.7362,0.144 -7.4375,-2.875 0.4591,0 7.2055,-5.4742 6.375,-9 -0.717,-3.0442 -5.0574,1.7079 -6.0625,-1.75 1.1107,-1.635 5.0693,-8.06148 4.9375,-15.09375 l 0.7812,-8.21875 -1.125,-10.15625 c -1.1509,-5.28683 -1.9523,-10.12018 -2.8437,-14.74999 -4.2643,-22.14876 -10.3902,-31.36212 -12.5937,-43.93751 -1.112,-6.345787 -9.4429,-9.669567 -13.1876,-13.781247 -3.3998,-3.733 -15.4815,-4.0488 -22.75,4.3125 -3.7681,4.33459 -4.5271,13.121637 -9.1874,18.406257 -10.2848,11.66224 -10.0735,39.66351 -11.6876,56.34374 -2.6315,27.1978 3.6983,33.4841 8.2188,43.0312 1.7123,3.6164 -2.7091,10.697 -2.9062,10.5 l 13.0624,3.75 c 0.4909,5.9862 -5.7193,8.2517 -9.0312,12.125 0.6033,-0.5027 11.6598,0.9993 11.9062,4.3438 0.2832,3.8417 -0.5092,5.2812 1.5,5.2812 0.3702,0 0.8517,-0.1001 1.4688,-0.2812 -15.8326,3.08972 -24.157,5.17065 -36.2683,16.05656 -4.1913,3.76726 9.3733,2.27293 4.2352,5.51977 -8.822,5.57483 -16.8302,13.06672 -23.9492,21.70144 -3.1897,3.86896 10.9419,-5.60406 8.116,-1.34586 -8.4978,12.8048 -24.9201,32.83949 -34.3158,50.15107 -4.5162,8.32115 0.6276,13.79339 -1.112,20.66408 -1.6275,6.42788 -10.26,14.34706 -10.8621,19.44044 -9.3811,7.32455 -18.3141,15.3387 -26.0207,24.69396 -2.7734,3.36677 -1.9683,8.77255 -5.7717,11.76225 -13.6654,10.74179 -34.243,24.47576 -31.4992,42.20388 0.5505,3.55726 -5.4724,7.91041 -7.7544,11.55732 -5.1285,8.19603 -10.1697,15.71837 -12.7336,23.16047 -3.7204,10.79879 -5.0618,12.28231 -8.5425,22.75107 -0.8961,2.69507 3.9063,1.25016 2.9968,4.20845 -2.3572,7.66661 -9.0687,16.36449 -12.0766,25.86813 -3.5734,11.29043 -3.3761,28.03674 -3.9973,39.1222 -0.2542,4.53607 -4.275,25.33027 -4.2751,29.4 -2e-4,10.10133 -1.2624,19.93097 0.5419,29.1837 1.6015,8.21246 6.1494,15.89463 8.1743,24.04684 4.2521,17.11944 10.4469,33.37401 18.3769,48.65272 4.0531,7.80896 18.2023,7.50585 23.1344,14.79015 51.7054,76.36544 140.5497,130.94256 253.9468,130.94256 107.2341,0 184.5868,-46.53952 238.0748,-121.12923 2.9056,-4.05187 10.5721,-6.03689 17.4147,-10.59832 6.8917,-4.59408 12.958,-11.76566 15.3814,-16.15026 4.1025,-7.42222 5.0577,-16.88013 7.9021,-25.28679 1.8982,-5.60992 5.8263,-10.15741 7.7216,-15.50476 6.8893,-19.4366 15.2589,-39.82044 16.9247,-60.87391 0.5004,-6.32347 -1.3881,-12.70736 -1.3881,-19.14413 0,-17.80167 -3.9144,-33.72331 -6.7521,-49.61965 -4.3923,-24.60581 -9.6947,-48.15389 -20.9398,-70.79617 -6.5944,-13.278 -16.2436,-24.93107 -24.4746,-39.01088 -5.99,-10.24631 -12.403,-20.91042 -19.1817,-32.20733 -7.3015,-12.16802 -14.4692,-12.74061 -24.0044,-25.12941 -6.1055,-11.6376 -11.8526,-8.80152 -13.7367,-15.63845 -1.7153,-6.22454 -4.8135,-14.12786 -5.6399,-19.42128 -1.0676,-6.83873 -4.063,-10.04078 -6.0611,-15.31402 -2.4339,-6.42312 -8.4554,-10.92506 -11.0689,-17.27619 -2.674,-6.49821 -3.4823,-13.98137 -7.2642,-21.36589 -7.414,-14.47648 -20.1632,-30.60468 -38.1322,-52.41229 -2.7281,-3.31091 -0.3718,2.05358 -4.1194,-0.0584 5.99,1.6726 -7.4189,-3.1554 -6.2812,-3.5313 1.8291,-0.6044 21.6098,-1.9754 21.9687,-2 -2.6266,-0.4511 -22.8482,-17.3203 -13.9375,-19.0313 3.9502,-0.7584 20.3438,-0.8947 20.3438,-15.0937 6.0572,-13.54658 8.308,-27.56401 9,-41.78125 l -0.7813,-15.87499 c -1.0759,-35.39219 -8.9985,-43.325837 -15.5937,-49.781257 -1.5635,-1.53034 -2.9495,-2.86294 -4.9063,-2.8125 z"
         style="fill:#72715f;fill-opacity:1;stroke:#000000;stroke-width:2.20000005;stroke-miterlimit:4;stroke-opacity:1;stroke-dasharray:none" />
      <path
         clip-path="url(#clipPath4208)"
         sodipodi:nodetypes="ccsssscssssssscssssccccsscsssccccccssscssc"
         inkscape:connector-curvature="0"
         id="path4204"
         d="m 447.01607,209.92613 c -1.97466,8.92495 21.72628,5.83187 21.98526,5.98725 -0.14668,0.80672 -33.14451,3.95961 -33.88156,3.96817 -594.61212,6.9001 -6.31977,12.32424 -6.60235,13.26773 -1.07425,3.58676 -17.60017,-2.60943 -17.87715,-1.7589 -0.51079,1.5685 7.16453,11.92775 6.29117,14.83672 -0.54975,1.83108 126.54368,-3.62849 126.54368,-3.62849 -0.59077,-0.4203 -123.0657,2.20006 -126.71352,0.60705 -5.95016,-2.59846 -5.71067,15.71512 -3.04551,18.82854 2.10148,2.45493 67.45153,8.41057 65.46681,10.812 -54.52479,65.97274 -46.39883,78.20104 -32.90012,95.55806 3.26278,4.19537 -37.18858,20.31085 -36.28301,25.29887 1.5614,8.6004 -16.91741,16.30164 -11.82016,23.51443 2.18468,3.09139 -40.8612,41.46712 -37.95194,44.07996 1.92872,1.7322 -1.37965,52.87556 0.0934,54.44975 -68.32003,28.39133 10.42036,246.39789 31.16908,261.17275 8.03771,5.72353 5.33964,-179.48135 14.22836,-185.03633 4.33163,-2.70704 25.26341,-69.52579 29.91837,-73.31575 8.26277,-6.72735 25.70116,-33.22847 33.3367,-40.33005 7.54082,-7.01349 31.12747,-28.66616 30.05306,-38.07997 0.24373,-16.62563 35.03847,-40.09379 35.03847,-40.09379 -13.33284,-4.879 -36.32209,-0.10159 -26.75885,-27.87667 l 12.41882,-36.96178 c -5.8403,8.08657 -4.10776,-4.43797 -3.56203,-26.38734 0.16718,-6.7241 11.01755,-25.89897 10.55345,-33.52889 -0.48836,-8.02897 29.6831,-30.19507 29.6831,-30.19507 0,0 7.33187,-4.97303 5.61866,-12.1321 -0.95767,-4.00188 -20.08673,6.36163 -17.26525,-0.74777 2.57679,-6.49283 8.29714,-10.8202 9.09124,-14.85947 1.63501,-8.3167 0.16005,-28.79827 0.16005,-28.79827 l -13.99739,-4.45292 14.07719,-27.19776 c -1.34515,1.68144 -33.67283,25.97366 -4.38153,-22.89635 0,0 -2.34824,-4.30675 -2.92592,-5.30821 -6.12659,-16.82622 6.83105,-26.37662 6.83105,-26.37662 0,0 -5.23548,0.50368 -5.65328,-2.808696 -0.92726,-7.351479 9.53377,-15.766733 7.64303,-14.453662 -2.68333,1.863514 -42.45116,0.266667 -44.19291,1.649338 -11.04829,8.770548 -3.63047,11.140723 -5.93707,14.51099 -9.49204,9.79603 -20.85969,22.57104 -23.96972,33.07417 -1.60685,5.42664 -24.996,12.56971 -27.68136,23.61379 -0.411,1.6905 18.32549,18.17037 16.88852,26.30469"
         style="fill:#48463a;fill-opacity:1;stroke:none" />
      <path
         sodipodi:nodetypes="ssssssssssssssccsccsssss"
         inkscape:connector-curvature="0"
         id="path3829"
         d="m 889.98289,651.715 c -0.4855,16.27639 -3.4445,47.44934 -5.0357,70.88158 -1.0358,15.25449 0.36,22.70119 -2.9549,36.1443 -0.7748,3.14196 -5.2285,-2.01683 -6.1909,0.93058 -3.0312,9.28424 -3.2846,25.71048 -7.0411,32.17534 -1.8352,3.1583 -1.9814,7.97888 -4.006,10.89508 -43.415,62.53263 -131.2869,68.70661 -221.9629,68.70661 -93.3947,0 -196.7997,5.3074 -238.6147,-63.7354 -19.1317,-31.5893 -6.7913,-122.82724 -6.7913,-161.35524 0,-67.8544 26.585,-132.17765 79.7498,-172.941 12.0263,-9.22096 26.3121,-17.31136 41.9845,-24.18231 1.8948,-0.83069 -1.1902,-2.35784 0.7436,-3.15272 39.2619,-16.13885 91.2425,-24.15119 133.0296,-24.15119 10.5632,0 11.3266,3.9911 21.5815,1.58974 8.0509,-1.88527 15.2644,-5.7925 20.7598,-6.2001 6.328,4.74173 26.2487,2.25929 47.005,15.01345 5.2098,-0.87696 25.5091,2.30289 31.1391,5.04454 18.7483,9.12988 38.4078,33.84789 49.7124,38.24398 24.2584,10.12166 23.2908,21.64314 29.4643,30.88392 3.8043,1.63972 4.9095,2.69105 6.7376,4.47415 4.7039,4.58811 11.8952,9.26285 14.9653,17.38611 1.593,4.21483 5.8421,8.4067 6.6168,12.82343 4.4305,25.26029 11.2439,54.87977 10.888,75.32708 -0.2399,13.78271 -1.3358,20.31189 -1.7798,35.19807 z"
         style="fill:#e1db9f;fill-opacity:1;stroke:#000000;stroke-width:2.20000005;stroke-miterlimit:4;stroke-opacity:1;stroke-dasharray:none" />
      <path
         style="fill:#a9a359;fill-opacity:1;stroke:none"
         d="m 398.59364,637.64269 c -0.10718,3.18661 -0.39965,6.3405 -0.25687,9.27043 0.34041,6.98524 -0.60305,13.79598 -0.79359,20.64539 -0.50336,18.09388 -1.62178,34.9842 -3.34584,48.43245 -0.45623,3.55874 0.2528,7.55526 0.16336,10.97311 -0.3923,14.99102 1.12614,28.06119 0.56892,39.68901 -0.2544,5.30868 1.91149,14.51606 2.81706,19.50408 1.5614,8.6004 1.38789,12.75124 6.48514,19.96403 2.18468,3.09139 4.48543,8.2249 7.39469,10.83774 1.92872,1.7322 3.96698,5.16199 5.43998,6.73618 23.32458,22.35223 39.35259,27.11846 46.50965,31.87426 12.30335,8.17548 3.97792,2.70402 1.76879,-11.81601 0.24373,-16.62563 -30.26356,-73.06894 -27.84315,-84.11682 3.46321,-15.8078 34.58434,-10.45945 30.06186,-34.36126 -0.22747,-1.20219 -13.74363,-11.88128 -13.74363,-11.88128 0,0 -6.6175,1.92709 -7.70416,-0.96022 -4.86233,-12.91944 3.64698,-35.13856 3.64698,-35.13856 0,0 -19.27527,12.3484 -20.98848,5.18933 -1.83229,-7.65669 -3.23047,-16.0737 -1.56687,-24.53581 1.63502,-8.3167 12.30291,-39.51256 12.30291,-39.51256 l -11.14025,-2.31006 11.22005,-29.34062 c -1.34515,1.68144 -33.67283,25.97366 -4.38153,-22.89635 0,0 -15.48022,11.85569 -16.0579,10.85423 -6.12659,-16.82622 27.28664,-44.55937 27.28664,-44.55937 0,0 -5.23548,-3.53692 -5.65328,-6.8493 -0.92726,-7.35148 3.48106,-16.79072 2.08719,-14.95874 -11.38544,14.96396 -13.09375,19.70315 -15.80094,23.59905 -6.51032,9.36895 -8.21006,20.69429 -13.63796,31.48715 -2.54282,5.05613 -4.81776,11.31971 -7.50279,22.36379 -0.411,1.6905 -2.38879,8.52752 -3.82576,16.66184 -1.78731,10.11746 -3.04877,22.03465 -3.05202,26.12944"
         id="path4200"
         inkscape:connector-curvature="0"
         sodipodi:nodetypes="csssssssscscsscscssccccccssssssc" />
      <path
         sodipodi:nodetypes="csssssscscsc"
         inkscape:connector-curvature="0"
         id="path3834"
         d="m 576.45989,866.21501 c -6.7082,4.37589 -12.3179,8.56577 -19.2248,10.9245 -7.8181,2.67002 -16.9429,3.34893 -24.661,5.83897 -21.1577,6.82593 -43.5496,3.95755 -63.2013,-17.85369 -14.4546,-16.04308 -25.2536,-35.51003 -31.29,-55.2587 -3.5226,-11.52446 -6.6011,-23.14487 -4.7338,-34.23686 0.7746,-4.60233 2.7616,-9.66199 4.5848,-14.0666 2.3092,-5.57884 3.4191,-12.18115 7.7419,-17.21226 33.0278,-43.50413 78.6625,-14.28422 98.0606,-1.7794 5.7488,3.70587 4.7438,9.02151 3.5953,9.42343 35.4968,26.03224 41.4736,51.38871 39.3737,95.3865 -0.3532,7.40288 -5.5018,11.29575 -10.2454,18.83411 z"
         style="fill:#72715f;fill-opacity:1;stroke:#000000;stroke-width:2.20000005;stroke-miterlimit:4;stroke-opacity:1;stroke-dasharray:none" />
      <path
         sodipodi:nodetypes="cssssssssssscsscc"
         inkscape:connector-curvature="0"
         id="path4197"
         d="m 883.23816,739.86215 c 1.20631,6.84881 0.76551,17.1077 -1.98902,20.31784 -1.11283,1.2969 -5.18912,-3.06509 -5.5871,-0.8713 -1.8329,10.10328 -3.57,20.21058 -6.22855,29.0277 -1.64797,5.46552 -3.0696,9.71908 -5.07462,13.27487 -2.72231,4.82785 -5.99293,8.36938 -7.45995,11.91161 -1.71091,4.1311 8.5111,-20.6962 6.7863,-32.915 -3.655,-25.893 -27.70803,-47.11819 -26.60773,-53.95999 0.6473,-4.0254 6.7099,-1.9923 9.1935,-3.4887 4.2442,-2.5573 6.3742,-7.5416 11.8775,-14.0116 4.7461,-5.5799 6.8524,-17.9568 10.6721,-22.5979 1.811,-2.2004 0.6578,13.9139 2.251,11.9368 10.3644,-12.8625 17.29178,-34.81453 17.25589,-31.12433 -0.26186,1.06425 0.0174,2.41125 -0.0863,3.4933 -0.40345,4.21247 -0.82591,8.91543 -1.13914,12.50867 -0.54249,6.22324 -1.10715,11.13499 -1.10494,12.92927 -0.0142,3.44445 -0.9864,9.6231 -0.97345,17.00803"
         style="fill:#a9a359;fill-opacity:1;stroke:none" />
      <path
         style="fill:#72715f;fill-opacity:1;stroke:#000000;stroke-width:2.20000005;stroke-miterlimit:4;stroke-opacity:1;stroke-dasharray:none"
         d="m 719.11639,866.21501 c 6.7083,4.37589 12.318,8.56577 19.2248,10.92449 7.8181,2.67003 16.943,3.34894 24.661,5.83898 21.1578,6.82592 43.5497,3.95755 63.2014,-17.8537 14.4546,-16.04307 25.2536,-35.51002 31.29,-55.2587 3.5225,-11.52445 6.6009,-23.14486 4.7338,-34.23685 -0.7747,-4.60233 -2.7617,-9.66199 -4.5849,-14.0666 -2.3092,-5.57885 -3.419,-12.18115 -7.7419,-17.21227 -33.0277,-43.50413 -78.6625,-14.28422 -98.0606,-1.7794 -5.7487,3.70587 -4.7437,9.02152 -3.5953,9.42343 -35.4967,26.03224 -41.4735,51.38871 -39.3736,95.3865 0.3532,7.40288 5.5017,11.29576 10.2453,18.83412 z"
         id="path3837"
         inkscape:connector-curvature="0"
         sodipodi:nodetypes="csssssscscsc" />
      <path
         sodipodi:nodetypes="csssssscssssscsscsccsc"
         inkscape:connector-curvature="0"
         id="path4233"
         d="m 720.53486,866.9293 c 6.53368,4.37589 14.31879,7.85148 21.0458,10.2102 7.6146,2.67003 16.50197,3.34894 24.01907,5.83898 20.60705,6.82592 41.65848,2.44232 60.79864,-19.36893 14.07834,-16.04307 25.10131,-34.7524 30.98058,-54.50108 3.4308,-11.52445 6.68161,-22.38725 4.86311,-33.47924 -0.75453,-4.60233 -2.68981,-9.66199 -4.46555,-14.0666 -2.24909,-5.57885 -5.09777,-12.68623 -9.30815,-17.71735 -3.43651,-4.64757 2.5079,34.23826 -0.4034,50.95543 -3.29889,18.94279 -13.7428,25.81305 -18.9066,33.33839 -5.76635,8.40344 -16.73711,4.93017 -22.31311,-6.3186 -4.421,-8.91876 -3.38381,-26.43912 -8.28461,-20.54854 -11.5222,13.8493 -31.96132,4.23283 -39.4566,8.20577 -28.31513,15.00873 -0.63312,-30.75415 8.6436,-35.11961 0,0 -2.03775,-4.31644 -5.65665,-3.50708 -4.77403,1.0677 -10.53814,-13.106 -9.20847,-23.37006 0.72241,-5.57643 11.22481,-10.67826 13.26678,-12.76717 0,0 -11.99658,6.45878 -16.35536,9.90401 -3.16264,2.49979 -1.66586,8.10725 -1.34659,8.04339 0,0 -3.48991,4.02653 -3.12401,2.10892 -34.57271,26.03224 -36.9909,49.32726 -34.94566,93.32505 0.34401,7.40288 5.53706,11.29576 10.15718,18.83412 z"
         style="fill:#464438;fill-opacity:1;stroke:none" />
      <path
         style="fill:#72715f;fill-opacity:1;stroke:#000000;stroke-width:2.20000005;stroke-miterlimit:4;stroke-opacity:1;stroke-dasharray:none"
         d="m 729.05109,838.15074 c 0,6.7366 1.4413,19.83897 5.4316,25.08811 10.4911,13.8011 22.7232,12.76909 39.5684,12.76909 11.7799,0 23.0906,-0.43883 31.1118,-6.67123 8.9017,-6.9165 8.2428,-15.69343 5.3526,-26.30481 -1.3408,-4.92307 -1.4814,-5.62131 -3.7201,-8.34491 -4.668,-5.679 -5.2186,-5.65018 -8.347,-8.10308 -4.7544,-3.7276 -8.1718,-4.22444 -11.5921,-5.53904 -1.2737,-0.4896 -5.5296,-2.57376 -7.3726,-2.77656 -2.635,-0.2899 -5.7637,-1.10537 -10.3609,-1.10537 -24.816,0 -40.0196,0.0317 -40.0716,20.9086 l 0.048,-0.42608 z"
         id="path3842"
         inkscape:connector-curvature="0"
         sodipodi:nodetypes="csssssssssccc" />
      <path
         sodipodi:nodetypes="ccccccc"
         inkscape:connector-curvature="0"
         id="path3870"
         d="m 812.06019,810.36848 -8.5268,3.3366 -14.7232,22.4134 0.75,0.6563 c 7.4997,-3.56117 14.9994,-7.80935 22.499,-15.36962 l 0.7198,-10.38038 z"
         style="font-size:medium;font-style:normal;font-variant:normal;font-weight:normal;font-stretch:normal;text-indent:0;text-align:start;text-decoration:none;line-height:normal;letter-spacing:normal;word-spacing:normal;text-transform:none;direction:ltr;block-progression:tb;writing-mode:lr-tb;text-anchor:start;baseline-shift:baseline;color:#000000;fill:#989993;fill-opacity:1;stroke:#000000;stroke-width:1px;stroke-opacity:1;marker:none;visibility:visible;display:inline;overflow:visible;enable-background:accumulate;font-family:Sans;-inkscape-font-specification:Sans" />
      <path
         sodipodi:nodetypes="cccccc"
         inkscape:connector-curvature="0"
         id="path3872"
         d="m 784.68519,790.77478 -17.7442,24.84077 0.338,12.03423 0.9062,0.4375 c 7.4022,-0.25906 19.1175,-31.22973 17.4063,-36.875 z"
         style="font-size:medium;font-style:normal;font-variant:normal;font-weight:normal;font-stretch:normal;text-indent:0;text-align:start;text-decoration:none;line-height:normal;letter-spacing:normal;word-spacing:normal;text-transform:none;direction:ltr;block-progression:tb;writing-mode:lr-tb;text-anchor:start;baseline-shift:baseline;color:#000000;fill:#989993;fill-opacity:1;stroke:#000000;stroke-width:1px;stroke-opacity:1;marker:none;visibility:visible;display:inline;overflow:visible;enable-background:accumulate;font-family:Sans;-inkscape-font-specification:Sans" />
      <path
         sodipodi:nodetypes="ccccc"
         inkscape:connector-curvature="0"
         id="path3874"
         d="m 749.06019,790.08728 c -5.1517,8.40346 -11.5908,24.91518 -13.625,38.125 l 0.9376,0.3438 c 10.1826,-3.32131 16.2405,-22.14114 13.625,-38.1563 z"
         style="font-size:medium;font-style:normal;font-variant:normal;font-weight:normal;font-stretch:normal;text-indent:0;text-align:start;text-decoration:none;line-height:normal;letter-spacing:normal;word-spacing:normal;text-transform:none;direction:ltr;block-progression:tb;writing-mode:lr-tb;text-anchor:start;baseline-shift:baseline;color:#000000;fill:#989993;fill-opacity:1;stroke:#000000;stroke-width:1px;stroke-opacity:1;marker:none;visibility:visible;display:inline;overflow:visible;enable-background:accumulate;font-family:Sans;-inkscape-font-specification:Sans" />
      <path
         sodipodi:nodetypes="csssssccc"
         inkscape:connector-curvature="0"
         id="path4076"
         d="m 589.04729,300.11567 c 0,8.0291 -6.5065,15.2893 -13.8264,19.2474 -3.9968,2.1611 -8.5906,2.9832 -11.6799,3.2285 -4.2511,0.3375 -7.1984,2.4857 -10.7245,1.5257 -10.8131,-2.9441 -18.5793,-13.895 -17.3073,-24.0016 2.136,-16.9707 14.5868,-21.7697 28.0318,-22.4759 21.1284,-1.1098 26.8804,9.4326 25.5063,22.4289 l -0.2525,-0.9632 z"
         style="fill:#ffffff;fill-opacity:1;stroke:#000000;stroke-width:2.20000005;stroke-miterlimit:4;stroke-opacity:0.99581586;stroke-dashoffset:0" />
      <path
         sodipodi:nodetypes="csssccc"
         inkscape:connector-curvature="0"
         id="path4079"
         d="m 576.42049,298.09527 c 0.2727,7.2339 -5.0564,10.2094 -10.8592,11.6168 -7.0269,1.7043 -11.4529,-3.406 -11.3642,-10.3541 0.082,-6.4152 5.3669,-9.8489 11.3642,-9.8489 5.9885,0 10.3415,3.4184 10.3541,9.8246 l 1.2626,0.024 z"
         style="fill:#000000;fill-opacity:1;stroke:#000000;stroke-width:2.20000005;stroke-miterlimit:4;stroke-opacity:0.99581586;stroke-dashoffset:0" />
      <path
         sodipodi:nodetypes="cssssssssccc"
         inkscape:connector-curvature="0"
         id="path4090"
         d="m 780.97639,302.26217 c 0,8.6593 -2.6777,12.8125 -7.0357,17.0875 -3.1175,3.0581 -6.4784,7.535 -13.1674,7.535 -6.0116,0 -13.3643,-0.1763 -17.998,-3.0734 -7.7293,-4.8327 -11.0439,-14.5353 -11.0439,-23.8219 0,-6.1943 2.5136,-10.3135 6.2716,-14.8515 2.951,-3.5633 6.5725,-8.0625 10.9997,-9.4579 3.4548,-1.0888 9.9053,-2.4627 13.5384,-0.5656 7.2892,3.8064 10.9474,6.7547 13.5369,11.2769 1.2686,2.2154 3.0485,3.465 3.383,7.986 l 0.5052,3.0864 z"
         style="fill:#ffffff;fill-opacity:1;stroke:#000000;stroke-width:2.20000005;stroke-miterlimit:4;stroke-opacity:0.99581586;stroke-dashoffset:0" />
      <path
         sodipodi:nodetypes="ssssscss"
         inkscape:connector-curvature="0"
         id="path4093"
         d="m 754.20729,309.08087 c -6.6947,0 -12.1219,-5.1445 -12.1219,-11.4905 0,-3.2852 3.105,-6.0791 5.5672,-8.0101 2.2942,-1.7991 3.8307,-2.8491 7.0598,-2.8491 2.7107,0 4.1254,1.769 5.6096,3.2282 2.1741,2.1373 3.7741,4.6225 3.8605,8.2458 0.08,3.8517 -2.3068,6.0311 -4.8255,8.1427 -1.4767,1.2381 -2.6753,2.733 -5.1497,2.733 z"
         style="fill:#000000;fill-opacity:1;stroke:#000000;stroke-width:2.20000005;stroke-miterlimit:4;stroke-opacity:0.99581586;stroke-dashoffset:0" />
      <path
         sodipodi:nodetypes="csssssssssssc"
         inkscape:connector-curvature="0"
         id="path4096"
         d="m 786.68299,358.66467 c 0,1.2322 -2.427,3.331 -18.8071,12.0149 -9.8983,5.2476 -22.3919,16.4653 -45.0241,23.1812 -12.0182,3.5662 -26.8752,11.2869 -44.4058,11.0881 -8.5123,-0.096 -77.2845,-7.5551 -86.763,-9.4986 -21.5276,-4.414 -42.8306,-13.5628 -55.9349,-23.0458 -12.0753,-8.7384 -16.7579,-18.0838 -17.9937,-16.9541 -0.5382,0.4919 3.7913,-2.3917 12.48,-3.7038 15.8453,-2.393 38.2612,1.1492 75.3402,-4.2679 13.2341,-1.9335 32.562,-3.8141 47.1798,-3.8141 15.5318,0 28.137,-0.3751 41.8243,1.0599 19.2639,2.0197 38.5695,6.224 52.8583,7.8828 23.9384,2.779 39.8546,2.2779 39.9597,3.5441"
         style="fill:#ffffff;fill-opacity:1;stroke:#000000;stroke-width:2.20000005;stroke-miterlimit:4;stroke-opacity:0.99581586;stroke-dasharray:none;stroke-dashoffset:0" />
      <path
         sodipodi:nodetypes="csc"
         inkscape:connector-curvature="0"
         id="path4099"
         d="m 552.52349,382.15307 c 2.6164,-6.9526 0.018,-17.2636 2.5354,-26.3826 0.4861,-1.7612 2.4611,-2.8138 3.1789,-4.6888"
         style="fill:none;stroke:#000000;stroke-width:1px;stroke-linecap:butt;stroke-linejoin:miter;stroke-opacity:1" />
      <path
         sodipodi:nodetypes="ccc"
         inkscape:connector-curvature="0"
         id="path4101"
         d="m 600.29259,347.84537 c -3.8105,2.5547 -5.0376,6.2166 -6.5828,9.7422 -0.5741,12.8013 -0.1054,29.2522 -1.8772,37.8612"
         style="fill:none;stroke:#000000;stroke-width:1px;stroke-linecap:butt;stroke-linejoin:miter;stroke-opacity:1" />
      <path
         sodipodi:nodetypes="ccc"
         inkscape:connector-curvature="0"
         id="path4103"
         d="m 646.86149,402.59317 c 2.2526,-22.4534 -1.6435,-39.931 1.25,-59.4643 l -0.5357,-0.3571"
         style="fill:none;stroke:#000000;stroke-width:1px;stroke-linecap:butt;stroke-linejoin:miter;stroke-opacity:1" />
      <path
         sodipodi:nodetypes="csc"
         inkscape:connector-curvature="0"
         id="path4105"
         d="m 696.14719,402.95037 c 0.6922,-9.7637 2.466,-19.9586 1.192,-29.6481 -1.3658,-10.3875 -2.6486,-19.4627 -3.3348,-28.9234"
         style="fill:none;stroke:#000000;stroke-width:1px;stroke-linecap:butt;stroke-linejoin:miter;stroke-opacity:1" />
      <path
         sodipodi:nodetypes="ccc"
         inkscape:connector-curvature="0"
         id="path4107"
         d="m 738.82579,387.77177 c -0.5351,-7.1222 0.6422,-16.6459 -3.3267,-23.3388 -3.6188,-5.1488 -3.7914,-8.5409 -3.6376,-14.1612"
         style="fill:none;stroke:#000000;stroke-width:1px;stroke-linecap:butt;stroke-linejoin:miter;stroke-opacity:1" />
      <path
         sodipodi:nodetypes="csc"
         inkscape:connector-curvature="0"
         id="path4109"
         d="m 765.79009,371.34317 c -0.066,-2.1527 -0.9271,-4.616 -1.2228,-6.6372 -0.5951,-4.0684 -1.0772,-7.436 -3.4201,-10.5056"
         style="fill:none;stroke:#000000;stroke-width:1px;stroke-linecap:butt;stroke-linejoin:miter;stroke-opacity:1" />
      <path
         sodipodi:nodetypes="asccasccccaca"
         inkscape:connector-curvature="0"
         id="path4111"
         d="m 804.20529,349.24497 c -0.9584,0.86678 -1.6701,3.69514 -0.3881,3.85714 3.8812,0.49044 7.9826,0.59575 7.6764,0.79986 l 14.4726,0.31941 c 0,0 20.455,1.39958 30.6502,2.45216 5.5447,0.57246 11.4672,1.18244 16.5901,2.10019 11.5661,2.07201 23.1565,4.10246 34.4053,5.72124 l 0.2812,-0.9687 c -14.6138,-6.17193 -30.7921,-10.15356 -47.7812,-13 l -0.062,-0.0313 c 0,0 -0.041,2.3e-4 -0.062,0 -18.5972,-0.20835 -55.7812,-1.25 -55.7812,-1.25 0,0 -10e-4,-2.9e-4 0,0 z"
         style="font-size:medium;font-style:normal;font-variant:normal;font-weight:normal;font-stretch:normal;text-indent:0;text-align:start;text-decoration:none;line-height:normal;letter-spacing:normal;word-spacing:normal;text-transform:none;direction:ltr;block-progression:tb;writing-mode:lr-tb;text-anchor:start;baseline-shift:baseline;color:#000000;fill:#757366;fill-opacity:1;stroke:#000000;stroke-width:1px;stroke-opacity:0.99581586;marker:none;visibility:visible;display:inline;overflow:visible;enable-background:accumulate;font-family:Sans;-inkscape-font-specification:Sans" />
      <path
         sodipodi:nodetypes="csssssssccc"
         inkscape:connector-curvature="0"
         id="path4123"
         d="m 908.79899,330.30747 c -3.4099,0.23769 -6.3947,-0.67328 -10.4933,-0.82263 -9.2244,-0.33616 -20.4603,-0.44428 -29.1062,-0.69019 -18.5178,-0.52668 -37.0667,0.26964 -52.1928,1.64639 -8.7841,0.79952 -15.7038,1.0847 -22.6452,3.27263 -0.5904,0.1861 0.1071,1.59417 0.7143,1.71429 15.9593,3.15703 22.8771,-2.34557 56.256,-0.61739 4.9967,0.2587 10.1945,0.15548 15.8824,-0.15552 11.5317,-0.63052 22.5776,-1.40078 40.5447,-2.45472 l 1.0404,-1.89286 z"
         style="font-size:medium;font-style:normal;font-variant:normal;font-weight:normal;font-stretch:normal;text-indent:0;text-align:start;text-decoration:none;line-height:normal;letter-spacing:normal;word-spacing:normal;text-transform:none;direction:ltr;block-progression:tb;writing-mode:lr-tb;text-anchor:start;baseline-shift:baseline;color:#000000;fill:#757366;fill-opacity:1;stroke:#000000;stroke-width:1px;stroke-opacity:0.99581586;marker:none;visibility:visible;display:inline;overflow:visible;enable-background:accumulate;font-family:Sans;-inkscape-font-specification:Sans" />
      <path
         sodipodi:nodetypes="cccscc"
         inkscape:connector-curvature="0"
         id="path4125"
         d="m 884.20529,289.80747 c -31.6042,3.59671 -63.2084,11.49498 -94.8126,30.5312 l 0.3126,0.9376 c -0.7675,4.42136 16.8891,-4.06712 38.5695,-13.14393 22.4745,-9.40924 49.6433,-13.17519 56.2429,-17.38737 z"
         style="font-size:medium;font-style:normal;font-variant:normal;font-weight:normal;font-stretch:normal;text-indent:0;text-align:start;text-decoration:none;line-height:normal;letter-spacing:normal;word-spacing:normal;text-transform:none;direction:ltr;block-progression:tb;writing-mode:lr-tb;text-anchor:start;baseline-shift:baseline;color:#000000;fill:#757366;fill-opacity:1;stroke:#000000;stroke-width:1px;stroke-opacity:0.99581586;marker:none;visibility:visible;display:inline;overflow:visible;enable-background:accumulate;font-family:Sans;-inkscape-font-specification:Sans" />
      <path
         sodipodi:nodetypes="ccsssscccssscc"
         inkscape:connector-curvature="0"
         id="path4143"
         d="m 640.93729,303.20911 -0.031,1 c 0.6871,0.3628 -0.4155,1.60682 0.2638,1.94557 2.9394,1.46579 7.3637,1.02869 10.3667,1.87493 4.8353,1.36262 9.6465,5.41322 13.9085,5.46153 3.0199,0.0342 6.0776,-2.96166 9.1252,-4.2714 2.8288,-1.2157 7.2772,-0.53355 9.9341,-3.29634 l 0.3617,-1.97068 -1.2235,-1.35075 c -1.4292,-0.5603 -2.2397,-2.0345 -3.681,-2.4608 -10.0941,-2.98553 -22.0038,-3.2878 -32.6868,-0.59255 -1.2813,0.32328 -2.4626,1.07156 -2.8577,1.30839 -0.3676,0.22027 0.1016,-0.13444 -2.2299,1.7271 z"
         style="font-size:medium;font-style:normal;font-variant:normal;font-weight:normal;font-stretch:normal;text-indent:0;text-align:start;text-decoration:none;line-height:normal;letter-spacing:normal;word-spacing:normal;text-transform:none;direction:ltr;block-progression:tb;writing-mode:lr-tb;text-anchor:start;baseline-shift:baseline;color:#000000;fill:#000000;fill-opacity:1;stroke:none;stroke-width:1px;marker:none;visibility:visible;display:inline;overflow:visible;enable-background:accumulate;font-family:Sans;-inkscape-font-specification:Sans" />
      <path
         sodipodi:nodetypes="cc"
         inkscape:connector-curvature="0"
         id="path4145"
         d="m 629.22949,301.35651 c 6.5565,-6.6585 14.3032,-8.8536 22.7616,-8.3797"
         style="fill:none;stroke:#000000;stroke-width:1px;stroke-linecap:butt;stroke-linejoin:miter;stroke-opacity:1" />
      <path
         sodipodi:nodetypes="cc"
         inkscape:connector-curvature="0"
         id="path4147"
         d="m 661.99809,290.83661 c 12.0623,-0.8653 22.6799,0.7192 29.2944,9.0914"
         style="fill:none;stroke:#000000;stroke-width:1px;stroke-linecap:butt;stroke-linejoin:miter;stroke-opacity:1" />
      <path
         sodipodi:nodetypes="cccccc"
         inkscape:connector-curvature="0"
         id="path4151"
         d="m 563.33119,492.18748 c -48.2015,-4.66404 -55.135,9.3327 -75.1631,24.32039 -2.8993,0.96447 -5.9274,3.60419 -8.3777,-1.26757 -0.2055,-0.54936 -0.2555,-1.12093 0.1252,-1.75403 28.6465,-40.63164 58.7815,-63.52874 85.5355,-26.5674 1.8852,2.9881 1.577,6.36268 -2.1199,5.26861 z"
         style="font-size:medium;font-style:normal;font-variant:normal;font-weight:normal;font-stretch:normal;text-indent:0;text-align:start;text-decoration:none;line-height:normal;letter-spacing:normal;word-spacing:normal;text-transform:none;direction:ltr;block-progression:tb;writing-mode:lr-tb;text-anchor:start;baseline-shift:baseline;color:#000000;fill:#71705f;fill-opacity:1;stroke:#000000;stroke-width:1px;stroke-opacity:0.99581586;marker:none;visibility:visible;display:inline;overflow:visible;enable-background:accumulate;font-family:Sans;-inkscape-font-specification:Sans" />
      <path
         style="font-size:medium;font-style:normal;font-variant:normal;font-weight:normal;font-stretch:normal;text-indent:0;text-align:start;text-decoration:none;line-height:normal;letter-spacing:normal;word-spacing:normal;text-transform:none;direction:ltr;block-progression:tb;writing-mode:lr-tb;text-anchor:start;baseline-shift:baseline;color:#000000;fill:#71705f;fill-opacity:1;stroke:#000000;stroke-width:1px;stroke-opacity:0.99581586;marker:none;visibility:visible;display:inline;overflow:visible;enable-background:accumulate;font-family:Sans;-inkscape-font-specification:Sans"
         d="m 686.55599,482.81639 c -12.9523,-1.25328 -18.9178,-7.09106 -26.359,-8.27714 -18.1933,-2.89988 -20.0812,1.65799 -42.7432,9.11148 -2.8993,0.96447 -5.9274,3.60419 -8.3777,-1.26757 -0.2055,-0.54936 -0.2555,-1.12093 0.1252,-1.75403 8.682,-12.31434 17.2316,-18.24857 23.7476,-22.60518 6.7064,-4.48394 11.3635,-7.17688 19.2886,-4.86887 9.7815,2.84864 25.3806,8.39495 35.6808,22.62493 1.8852,2.9881 2.3346,8.13045 -1.3623,7.03638 z"
         id="path4155"
         inkscape:connector-curvature="0"
         sodipodi:nodetypes="cscccsscc" />
      <path
         sodipodi:nodetypes="ccccsscsc"
         inkscape:connector-curvature="0"
         id="path4157"
         d="m 779.80559,481.83222 c -6.6403,-2.85544 -10.172,-2.02939 -32.7997,4.59643 -2.8998,0.96463 -8.9575,1.11052 -5.967,-4.30328 -0.2055,-0.54936 2.9588,-3.97808 3.3395,-4.61118 11.5637,-11.23053 12.6231,-11.06237 18.0333,-14.56946 7.524,-4.87726 10.868,-3.27849 16.6993,0.75613 8.0703,5.58371 16.8074,11.72234 28.0412,24.47409 1.3186,1.28858 1.0005,6.01119 -1.5169,5.26529 -6.537,-1.93692 -19.8582,-9.66219 -25.8297,-11.60802 z"
         style="font-size:medium;font-style:normal;font-variant:normal;font-weight:normal;font-stretch:normal;text-indent:0;text-align:start;text-decoration:none;line-height:normal;letter-spacing:normal;word-spacing:normal;text-transform:none;direction:ltr;block-progression:tb;writing-mode:lr-tb;text-anchor:start;baseline-shift:baseline;color:#000000;fill:#71705f;fill-opacity:1;stroke:#000000;stroke-width:1px;stroke-opacity:0.99581586;marker:none;visibility:visible;display:inline;overflow:visible;enable-background:accumulate;font-family:Sans;-inkscape-font-specification:Sans" />
      <path
         style="font-size:medium;font-style:normal;font-variant:normal;font-weight:normal;font-stretch:normal;text-indent:0;text-align:start;text-decoration:none;line-height:normal;letter-spacing:normal;word-spacing:normal;text-transform:none;direction:ltr;block-progression:tb;writing-mode:lr-tb;text-anchor:start;baseline-shift:baseline;color:#000000;fill:#71705f;fill-opacity:1;stroke:#000000;stroke-width:1px;stroke-opacity:0.99581586;marker:none;visibility:visible;display:inline;overflow:visible;enable-background:accumulate;font-family:Sans;-inkscape-font-specification:Sans"
         d="m 697.95869,528.94597 c -13.4935,4.82844 -15.417,8.00677 -33.9362,10.026 -2.8998,0.96463 -8.8312,0.35291 -5.8407,-5.06089 -0.2055,-0.54936 2.9588,-3.97808 3.3395,-4.61118 12.0844,-10.88341 14.0392,-10.98893 19.1697,-13.30677 14.2276,-6.4277 16.8267,-12.48349 36.271,-10e-4 9.1334,5.86301 9.8207,5.41694 20.5914,14.37256 2.9607,3.75183 -9.4656,2.84594 -14.6489,1.35095 -9.4397,-2.72259 -11.7524,-3.56698 -24.9458,-2.76919 z"
         id="path4159"
         inkscape:connector-curvature="0"
         sodipodi:nodetypes="ccccsscsc" />
      <path
         sodipodi:nodetypes="cscccsscc"
         inkscape:connector-curvature="0"
         id="path4161"
         d="m 621.89939,541.93942 c -12.9523,-1.25328 -9.2989,-0.52063 -16.7161,-1.84857 -23.2294,-4.1589 -22.4518,1.06534 -42.7432,9.11148 -2.8993,0.96447 -4.856,3.96133 -7.3063,-0.91043 -0.2055,-0.54936 -0.2555,-1.12093 0.1252,-1.75403 8.682,-12.31434 16.8745,-15.39143 23.3905,-19.74804 6.7064,-4.48394 11.7206,-10.03402 19.6457,-7.72601 9.7815,2.84864 19.6663,3.03781 29.9665,17.26779 1.8852,2.9881 -2.6654,6.70188 -6.3623,5.60781 z"
         style="font-size:medium;font-style:normal;font-variant:normal;font-weight:normal;font-stretch:normal;text-indent:0;text-align:start;text-decoration:none;line-height:normal;letter-spacing:normal;word-spacing:normal;text-transform:none;direction:ltr;block-progression:tb;writing-mode:lr-tb;text-anchor:start;baseline-shift:baseline;color:#000000;fill:#71705f;fill-opacity:1;stroke:#000000;stroke-width:1px;stroke-opacity:0.99581586;marker:none;visibility:visible;display:inline;overflow:visible;enable-background:accumulate;font-family:Sans;-inkscape-font-specification:Sans" />
      <path
         style="font-size:medium;font-style:normal;font-variant:normal;font-weight:normal;font-stretch:normal;text-indent:0;text-align:start;text-decoration:none;line-height:normal;letter-spacing:normal;word-spacing:normal;text-transform:none;direction:ltr;block-progression:tb;writing-mode:lr-tb;text-anchor:start;baseline-shift:baseline;color:#000000;fill:#71705f;fill-opacity:1;stroke:#000000;stroke-width:1px;stroke-opacity:0.99581586;marker:none;visibility:visible;display:inline;overflow:visible;enable-background:accumulate;font-family:Sans;-inkscape-font-specification:Sans"
         d="m 520.47079,556.76084 c -1.6619,4.23157 -15.9238,2.54138 -20.6446,2.08001 -14.5475,-1.42175 -10.9665,4.49059 -17.8828,6.17026 -1.021,0.24796 -2.0014,-2.37814 -3.0816,-1.78415 -3.3662,1.85104 -7.0561,9.39211 -12.8503,11.68965 -2.8993,0.96447 -5.9274,4.67562 -8.3777,-0.19614 -0.2055,-0.54936 2.9588,-3.62093 3.3395,-4.25403 8.1178,-12.22031 9.7492,-16.15387 14.4619,-24.74804 1.075,-1.96027 5.9141,-4.51374 7.4591,-6.0598 0.9283,-0.92899 -1.4723,-1.94012 -0.4682,-2.38578 3.9701,-1.76199 11.5199,0.0896 12.6548,0.71957 11.6199,6.45005 9.1534,2.55824 17.4665,8.33922 1.0556,3.13871 10.2048,4.62064 7.9234,10.42923 z"
         id="path4163"
         inkscape:connector-curvature="0"
         sodipodi:nodetypes="sssscccsssscs" />
      <path
         style="font-size:medium;font-style:normal;font-variant:normal;font-weight:normal;font-stretch:normal;text-indent:0;text-align:start;text-decoration:none;line-height:normal;letter-spacing:normal;word-spacing:normal;text-transform:none;direction:ltr;block-progression:tb;writing-mode:lr-tb;text-anchor:start;baseline-shift:baseline;color:#000000;fill:#71705f;fill-opacity:1;stroke:#000000;stroke-width:1px;stroke-opacity:0.99581586;marker:none;visibility:visible;display:inline;overflow:visible;enable-background:accumulate;font-family:Sans;-inkscape-font-specification:Sans"
         d="m 812.30559,547.01079 c -6.6403,-2.85544 -7.8506,-5.77939 -30.4783,0.84643 -2.8998,0.96463 -8.9575,1.11052 -5.967,-4.30328 -0.2055,-0.54936 5.2802,-4.15665 5.6609,-4.78975 12.2888,-6.51735 24.6684,-11.61792 31.069,-9.03375 21.0806,9.31782 16.0086,11.25475 24.7405,21.12308 0.091,1.02015 6.1352,13.9337 0.8046,13.83672 -6.8168,-0.12402 -19.8582,-15.73362 -25.8297,-17.67945 z"
         id="path4165"
         inkscape:connector-curvature="0"
         sodipodi:nodetypes="ccccccsc" />
      <path
         sodipodi:nodetypes="ccccc"
         inkscape:connector-curvature="0"
         id="path4167"
         d="m 898.75469,725.80731 c -5.7517,5.53218 1.8785,20.82081 -2.2531,30.4221 l 3.0203,-1.95781 c 3.6732,-6.88989 5.2576,-13.58629 3.0413,-28.55235 z"
         style="font-size:medium;font-style:normal;font-variant:normal;font-weight:normal;font-stretch:normal;text-indent:0;text-align:start;text-decoration:none;line-height:normal;letter-spacing:normal;word-spacing:normal;text-transform:none;direction:ltr;block-progression:tb;writing-mode:lr-tb;text-anchor:start;baseline-shift:baseline;color:#000000;fill:#939796;fill-opacity:1;stroke:#000000;stroke-width:1px;stroke-opacity:0.99581586;marker:none;visibility:visible;display:inline;overflow:visible;enable-background:accumulate;font-family:Sans;-inkscape-font-specification:Sans" />
      <path
         sodipodi:nodetypes="ccsccc"
         inkscape:connector-curvature="0"
         id="path4169"
         d="m 892.71179,731.7403 -2.5152,0.0313 c -6.9468,6.22807 -3.6899,13.05607 -1.4648,20.05972 1.2152,3.825 1.1202,7.95302 1.2072,11.48427 1.0909,0.86277 2.1819,-1.94241 3.2728,-5.05076 1.2262,-10.1042 2.2375,-16.42033 -0.5,-26.52453 z"
         style="font-size:medium;font-style:normal;font-variant:normal;font-weight:normal;font-stretch:normal;text-indent:0;text-align:start;text-decoration:none;line-height:normal;letter-spacing:normal;word-spacing:normal;text-transform:none;direction:ltr;block-progression:tb;writing-mode:lr-tb;text-anchor:start;baseline-shift:baseline;color:#000000;fill:#929695;fill-opacity:1;stroke:#000000;stroke-width:1px;stroke-opacity:0.99581586;marker:none;visibility:visible;display:inline;overflow:visible;enable-background:accumulate;font-family:Sans;-inkscape-font-specification:Sans" />
      <path
         sodipodi:nodetypes="ccccc"
         inkscape:connector-curvature="0"
         id="path4175"
         d="m 381.95969,721.70709 c -10.3592,5.18052 -10.0876,25.8211 -4.2813,30.6874 l 0.8425,-0.25381 c -1.5891,-12.35905 8.767,-31.8469 4.3125,-30.6874 z"
         style="font-size:medium;font-style:normal;font-variant:normal;font-weight:normal;font-stretch:normal;text-indent:0;text-align:start;text-decoration:none;line-height:normal;letter-spacing:normal;word-spacing:normal;text-transform:none;direction:ltr;block-progression:tb;writing-mode:lr-tb;text-anchor:start;baseline-shift:baseline;color:#000000;fill:#979796;fill-opacity:1;stroke:#000000;stroke-width:1px;stroke-opacity:0.99581586;marker:none;visibility:visible;display:inline;overflow:visible;enable-background:accumulate;font-family:Sans;-inkscape-font-specification:Sans" />
      <path
         sodipodi:nodetypes="cccccc"
         inkscape:connector-curvature="0"
         id="path4177"
         d="m 389.40809,726.26314 -1.6313,-0.66381 c -3.4687,0.007 -3.9217,4.67509 -3.7232,10.34979 -0.357,9.26933 3.9093,13.4532 6.6294,19.33771 l 1.6314,0.66391 c -1.7487,-10.2694 1.3583,-27.78438 -2.9063,-29.6876 z"
         style="font-size:medium;font-style:normal;font-variant:normal;font-weight:normal;font-stretch:normal;text-indent:0;text-align:start;text-decoration:none;line-height:normal;letter-spacing:normal;word-spacing:normal;text-transform:none;direction:ltr;block-progression:tb;writing-mode:lr-tb;text-anchor:start;baseline-shift:baseline;color:#000000;fill:#979796;fill-opacity:1;stroke:#000000;stroke-width:1px;stroke-opacity:0.99581586;marker:none;visibility:visible;display:inline;overflow:visible;enable-background:accumulate;font-family:Sans;-inkscape-font-specification:Sans" />
      <path
         sodipodi:nodetypes="ccc"
         inkscape:connector-curvature="0"
         id="path4187"
         d="m 418.50469,548.34947 c -2.5,3.7424 -7.1428,6.7319 -9.6428,8.5715 -1.4807,-22.938 15.7623,-39.2466 26.0714,-82.8572"
         style="fill:none;stroke:#000000;stroke-width:1px;stroke-linecap:butt;stroke-linejoin:miter;stroke-opacity:1" />
      <path
         sodipodi:nodetypes="cc"
         inkscape:connector-curvature="0"
         id="path4189"
         d="m 881.71899,544.42097 c 5.4921,-30.7994 -16.3411,-46.1709 -11.0714,-80.3572"
         style="fill:none;stroke:#000000;stroke-width:1px;stroke-linecap:butt;stroke-linejoin:miter;stroke-opacity:1" />
      <path
         inkscape:transform-center-y="-25.340828"
         inkscape:transform-center-x="15.714286"
         style="fill:#a9a359;fill-opacity:1;stroke:none"
         d="m 633.23116,871.3278 c 0,0 -9.55464,-0.73836 -18.34232,-0.68415 -12.23013,0.0754 -25.45633,0.002 -28.80623,-0.052 -3.42067,-0.0547 -15.3459,1.22961 -15.85566,-0.10207 -0.80235,-2.096 4.65966,-4.84029 8.79604,-7.16609 4.69678,-2.6409 7.84389,-11.88509 7.84389,-11.88509 0,0 1.60684,-31.50733 2.28983,-25.31618 5.60873,-1.91454 11.22567,5.94004 16.63965,4.86917 5.62363,-1.11234 13.17114,0.51789 18.12012,-1.15205 11.30902,-3.81601 0.95297,-10.22334 4.6792,-10.3324 1.72716,-0.0505 16.0041,-1.27692 20.09517,-0.0396 5.56216,1.68217 1.08377,6.10014 2.19914,7.34402 3.30803,3.68917 6.81774,-2.29656 14.20533,1.89521 2.37592,1.34812 10.50263,-6.4912 14.21125,-4.60996 6.23625,3.1634 -3.32052,6.18936 -0.0125,7.99612 2.50108,1.36603 4.67078,-8.17217 6.91169,-6.97821 6.30431,3.35893 16.45966,0.42456 19.67273,3.41027 4.21704,3.91862 1.54691,13.14681 1.54691,13.14681 0,0 1.22088,9.32748 4.0473,14.23664 4.22908,7.34544 8.24324,11.89831 7.59451,11.95893 -4.21339,0.3937 -20.69779,1.9327 -24.286,2.29912 -6.21452,0.63461 -15.07357,-0.42717 -16.83558,-0.0884"
         id="path4202"
         inkscape:connector-curvature="0"
         sodipodi:nodetypes="cssssccsssssssssscsssc" />
      <path
         style="fill:#48463b;fill-opacity:1;stroke:none"
         d="m 569.0715,864.31494 c -6.26891,4.34964 -11.51125,8.51439 -17.96585,10.85897 -7.30611,2.65399 -15.83337,3.32883 -23.04604,5.80395 -19.77216,6.78497 -40.6977,3.93379 -59.06248,-17.7466 -13.50803,-15.94684 -23.59985,-35.297 -29.24095,-54.9272 -3.29192,-11.45533 -6.16881,-23.00603 -4.4238,-34.03147 0.72388,-4.57473 2.58075,-9.60403 4.28456,-13.98222 2.15797,-5.54538 3.19519,-12.10807 7.23491,-17.10901 13.65436,-19.13036 44.7374,-22.64606 44.7374,-22.64606 0,0 -31.41798,49.32786 -21.30976,56.25883 5.37233,3.68367 -8.60726,27.76381 -9.68054,28.16331 7.61467,5.93983 19.06019,26.68025 30.60718,28.38259 6.29287,0.92773 9.98233,17.59787 13.49449,23.80382 22.8502,40.37607 73.94535,-11.55003 73.94535,-11.55003 0,0 -5.14151,11.22799 -9.57447,18.72112 z"
         id="path4231"
         inkscape:connector-curvature="0"
         sodipodi:nodetypes="cssssssccscsscc" />
      <path
         sodipodi:nodetypes="csssssssssccc"
         inkscape:connector-curvature="0"
         id="path3839"
         d="m 576.37439,837.64566 c 0,6.7366 -1.277,19.6291 -6.8295,23.1851 -13.2691,8.4978 -21.3253,14.6721 -38.1705,14.6721 -11.7799,0 -23.8482,8.4 -31.8694,2.1676 -8.9017,-6.9165 -9.796,-27.2249 -8.7619,-38.1741 0.448,-4.7445 1.9865,-8.5255 4.2252,-11.2491 4.668,-5.679 7.8702,-6.7866 10.9986,-9.2395 4.7544,-3.7276 8.6769,-7.2549 12.0972,-8.5695 1.2737,-0.4896 5.5296,-1.5636 7.3726,-1.7664 2.635,-0.2899 3.2383,-2.6206 7.8355,-2.6206 24.816,0 43.0501,10.6383 43.1021,31.5152 l -0.5532,0.079 z"
         style="fill:#727061;fill-opacity:1;stroke:#000000;stroke-width:2.20000005;stroke-miterlimit:4;stroke-opacity:1;stroke-dasharray:none" />
      <path
         sodipodi:nodetypes="ccccc"
         inkscape:connector-curvature="0"
         id="path3852"
         d="m 542.61379,778.09425 c -6.8078,14.77224 -9.7719,34.52824 -1.7813,39.6562 l 1,0.0312 c 4.9871,0.75793 7.2058,-35.33257 1.7813,-39.625 z"
         style="font-size:medium;font-style:normal;font-variant:normal;font-weight:normal;font-stretch:normal;text-indent:0;text-align:start;text-decoration:none;line-height:normal;letter-spacing:normal;word-spacing:normal;text-transform:none;direction:ltr;block-progression:tb;writing-mode:lr-tb;text-anchor:start;baseline-shift:baseline;color:#000000;fill:#989993;fill-opacity:1;stroke:#000000;stroke-width:1px;stroke-opacity:1;marker:none;visibility:visible;display:inline;overflow:visible;enable-background:accumulate;font-family:Sans;-inkscape-font-specification:Sans" />
      <path
         sodipodi:nodetypes="ccccc"
         inkscape:connector-curvature="0"
         id="path3854"
         d="m 503.58249,780.06295 -0.9375,0.4063 c 1.9622,36.16397 10.5447,40.35758 18.2188,42.5 l 0.9062,-0.4063 c -5.6736,-14.61695 -6.8428,-34.44957 -18.1875,-42.5 z"
         style="font-size:medium;font-style:normal;font-variant:normal;font-weight:normal;font-stretch:normal;text-indent:0;text-align:start;text-decoration:none;line-height:normal;letter-spacing:normal;word-spacing:normal;text-transform:none;direction:ltr;block-progression:tb;writing-mode:lr-tb;text-anchor:start;baseline-shift:baseline;color:#000000;fill:#989993;fill-opacity:1;stroke:#000000;stroke-width:1px;stroke-opacity:1;marker:none;visibility:visible;display:inline;overflow:visible;enable-background:accumulate;font-family:Sans;-inkscape-font-specification:Sans" />
      <path
         sodipodi:nodetypes="ccccc"
         inkscape:connector-curvature="0"
         id="path3866"
         d="m 484.75825,802.1981 -0.9375,0.4063 c 2.5315,13.31725 5.2259,26.34939 13.0312,30.4374 l 0.9063,-0.4062 c -3.3308,-10.59141 -4.0965,-22.32285 -13,-30.4375 z"
         style="font-size:medium;font-style:normal;font-variant:normal;font-weight:normal;font-stretch:normal;text-indent:0;text-align:start;text-decoration:none;line-height:normal;letter-spacing:normal;word-spacing:normal;text-transform:none;direction:ltr;block-progression:tb;writing-mode:lr-tb;text-anchor:start;baseline-shift:baseline;color:#000000;fill:#989993;fill-opacity:1;stroke:#000000;stroke-width:1px;stroke-opacity:1;marker:none;visibility:visible;display:inline;overflow:visible;enable-background:accumulate;font-family:Sans;-inkscape-font-specification:Sans" />
      <path
         sodipodi:nodetypes="ccsccsc"
         inkscape:connector-curvature="0"
         id="path4131"
         d="m 376.48649,301.65127 -0.1563,0.9687 c 24.7584,2.66187 48.8356,4.06873 73.024,10.39047 18.191,4.75429 37.4005,8.18736 58.2885,11.32823 l 0.1876,-0.9687 c -2.463,-1.04892 2.1292,-1.54327 -0.3648,-2.4955 -38.5849,-14.73217 -87.857,-18.66921 -130.979,-19.2232 z"
         style="font-size:medium;font-style:normal;font-variant:normal;font-weight:normal;font-stretch:normal;text-indent:0;text-align:start;text-decoration:none;line-height:normal;letter-spacing:normal;word-spacing:normal;text-transform:none;direction:ltr;block-progression:tb;writing-mode:lr-tb;text-anchor:start;baseline-shift:baseline;color:#000000;fill:#72715f;fill-opacity:1;stroke:#000000;stroke-width:1px;stroke-opacity:0.99581586;marker:none;visibility:visible;display:inline;overflow:visible;enable-background:accumulate;font-family:Sans;-inkscape-font-specification:Sans" />
      <path
         sodipodi:nodetypes="ccscccc"
         inkscape:connector-curvature="0"
         id="path4133"
         d="m 354.23649,329.93247 -0.094,1 c 39.6395,3.64713 69.3599,5.35042 88.9649,8.18794 42.3139,6.12428 44.8972,11.06504 50.4414,6.68706 l -0.6637,-2.26269 c -40.6397,-13.61301 -92.0674,-13.61158 -139.4062,-14.875 z"
         style="font-size:medium;font-style:normal;font-variant:normal;font-weight:normal;font-stretch:normal;text-indent:0;text-align:start;text-decoration:none;line-height:normal;letter-spacing:normal;word-spacing:normal;text-transform:none;direction:ltr;block-progression:tb;writing-mode:lr-tb;text-anchor:start;baseline-shift:baseline;color:#000000;fill:#72715f;fill-opacity:1;stroke:#000000;stroke-width:1px;stroke-opacity:0.99581586;marker:none;visibility:visible;display:inline;overflow:visible;enable-background:accumulate;font-family:Sans;-inkscape-font-specification:Sans" />
      <path
         sodipodi:nodetypes="ccccc"
         inkscape:connector-curvature="0"
         id="path4135"
         d="m 468.76769,365.02627 c -93.0531,6.16673 -106.1665,12.14265 -108.5937,15.6562 l 0.1562,1 c 34.8092,-8.36632 112.7438,-11.34239 108.5938,-15.6562 z"
         style="font-size:medium;font-style:normal;font-variant:normal;font-weight:normal;font-stretch:normal;text-indent:0;text-align:start;text-decoration:none;line-height:normal;letter-spacing:normal;word-spacing:normal;text-transform:none;direction:ltr;block-progression:tb;writing-mode:lr-tb;text-anchor:start;baseline-shift:baseline;color:#000000;fill:#72715f;fill-opacity:1;stroke:#000000;stroke-width:1px;stroke-opacity:0.99581586;marker:none;visibility:visible;display:inline;overflow:visible;enable-background:accumulate;font-family:Sans;-inkscape-font-specification:Sans" />
    </g>
  </g>
</svg>
